<svg xmlns="http://www.w3.org/2000/svg" viewBox="0 0 1065.33 1058.46"><defs><style>.cls-1{fill:#fcd20e;}</style></defs><title>Pattern</title><g id="Layer_2" data-name="Layer 2"><g id="Layer_1-2" data-name="Layer 1"><g id="Pattern_left"><path class="cls-1" d="M670.4,786.18l-.06,0a2.83,2.83,0,0,1-4-.6l-21.93-29.86a2.75,2.75,0,0,1,.61-4,2.82,2.82,0,0,1,4,.6l21.93,29.86A2.84,2.84,0,0,1,670.4,786.18Z"/><path class="cls-1" d="M413.31,602.06a2.84,2.84,0,0,1-3.56-.06l-9.82-8.21a2.83,2.83,0,1,1,3.63-4.34l9.82,8.21a2.84,2.84,0,0,1-.07,4.4Z"/><path class="cls-1" d="M543.19,930.32a2.82,2.82,0,0,1-3.26.15l-10.8-6.87a2.83,2.83,0,0,1,3-4.78L543,925.7a2.83,2.83,0,0,1,.86,3.91A2.92,2.92,0,0,1,543.19,930.32Z"/><path class="cls-1" d="M695.35,581.21a3,3,0,0,1-.78.44l-22.43,8a2.83,2.83,0,0,1-1.9-5.33l22.42-8a2.83,2.83,0,0,1,2.69,4.89Z"/><path class="cls-1" d="M802.12,389a2.85,2.85,0,0,1-1.62.59l-12.36.53a2.83,2.83,0,0,1-.24-5.66l12.36-.53a2.84,2.84,0,0,1,1.86,5.07Z"/><path class="cls-1" d="M802,252.65a2.82,2.82,0,0,1-3.09.25l-9.73-5.29a2.83,2.83,0,0,1,2.71-5l9.73,5.3a2.82,2.82,0,0,1,.38,4.71Z"/><path class="cls-1" d="M448.71,126.13a2.84,2.84,0,0,1-1.43.58l-16.85,1.81a2.83,2.83,0,1,1-.61-5.63l16.85-1.81a2.83,2.83,0,0,1,2,5Z"/><path class="cls-1" d="M553.44,525.61a2.83,2.83,0,0,1-4.29-3.45l5.18-10.8a2.83,2.83,0,1,1,5.1,2.45l-5.18,10.79A2.69,2.69,0,0,1,553.44,525.61Z"/><path class="cls-1" d="M328.22,736.31a2.9,2.9,0,0,1-1.42.58,2.84,2.84,0,0,1-3.13-2.5l-3.27-28.8A2.83,2.83,0,0,1,326,705l3.27,28.81A2.85,2.85,0,0,1,328.22,736.31Z"/><path class="cls-1" d="M81,412.44a2.83,2.83,0,0,1-3.63-4.34L109,379.63a2.83,2.83,0,0,1,3.79,4.21L81.16,412.31Z"/><path class="cls-1" d="M735.24,270.36a2.84,2.84,0,0,1-2.62.46l-11.88-3.9a2.83,2.83,0,1,1,1.76-5.37l11.88,3.89a2.83,2.83,0,0,1,1.81,3.57A2.76,2.76,0,0,1,735.24,270.36Z"/><path class="cls-1" d="M436.77,538a2.83,2.83,0,0,1-4.53-2.67l1.13-7.32a2.83,2.83,0,0,1,5.59.87l-1.13,7.32A2.85,2.85,0,0,1,436.77,538Z"/><path class="cls-1" d="M649.53,168.16a2.63,2.63,0,0,1-.58.35,2.83,2.83,0,0,1-3.74-1.41l-4-8.72a2.83,2.83,0,0,1,5.16-2.34l4,8.73A2.84,2.84,0,0,1,649.53,168.16Z"/><path class="cls-1" d="M453.07,759.7a2.82,2.82,0,0,1-1.34.56l-8.54,1.22a2.83,2.83,0,0,1-.8-5.6l8.54-1.22a2.83,2.83,0,0,1,2.14,5Z"/><path class="cls-1" d="M785.24,290.9a2.83,2.83,0,0,1-.28.2L778.48,295a2.83,2.83,0,1,1-2.91-4.86l6.48-3.88a2.83,2.83,0,0,1,3.19,4.66Z"/><path class="cls-1" d="M725.41,394.89a2.75,2.75,0,0,1-1.53.59l-27.34,1.94a2.83,2.83,0,1,1-.41-5.64l27.35-1.94a2.82,2.82,0,0,1,1.93,5.05Z"/><path class="cls-1" d="M284.22,259.52a2.83,2.83,0,0,1-4.31-3.41l8.94-19.4a2.83,2.83,0,1,1,5.14,2.37l-8.94,19.39A2.7,2.7,0,0,1,284.22,259.52Z"/><path class="cls-1" d="M591.36,366.31a2.8,2.8,0,0,1-1,.5l-16.72,4.57a2.83,2.83,0,0,1-1.5-5.46l16.73-4.57a2.83,2.83,0,0,1,2.48,5Z"/><path class="cls-1" d="M263.83,304.77a2.84,2.84,0,0,1-2.91.34l-32.28-14.7a2.83,2.83,0,1,1,2.35-5.15L263.26,300a2.83,2.83,0,0,1,1.4,3.75A2.73,2.73,0,0,1,263.83,304.77Z"/><path class="cls-1" d="M498.62,534.78a2.84,2.84,0,0,1-3.89-.4L488,526.47a2.83,2.83,0,1,1,4.31-3.67l6.74,7.91a2.83,2.83,0,0,1-.32,4A.39.39,0,0,0,498.62,534.78Z"/><path class="cls-1" d="M487,102.44a2.65,2.65,0,0,1-1.29.56,2.82,2.82,0,0,1-3.24-2.35l-1.77-11.09a2.83,2.83,0,1,1,5.59-.89L488,99.76A2.81,2.81,0,0,1,487,102.44Z"/><path class="cls-1" d="M969.74,593.41a2.84,2.84,0,0,1-3.72-.22L950.53,578a2.83,2.83,0,0,1,4-4L970,589.15a2.82,2.82,0,0,1,0,4A3.45,3.45,0,0,1,969.74,593.41Z"/><path class="cls-1" d="M822.42,593.91a2.82,2.82,0,0,1-3.47,0l-9.77-7.57a2.83,2.83,0,1,1,3.47-4.47l9.77,7.57a2.82,2.82,0,0,1,.5,4A2.63,2.63,0,0,1,822.42,593.91Z"/><path class="cls-1" d="M559.08,851.89a2.83,2.83,0,0,1-4.56-2.15l-1.33-42.92a2.83,2.83,0,1,1,5.65-.18l1.33,42.92A2.84,2.84,0,0,1,559.08,851.89Z"/><path class="cls-1" d="M540.07,80.85a2.42,2.42,0,0,1-.41.27A2.84,2.84,0,0,1,535.83,80l-10.57-19.8a2.83,2.83,0,1,1,5-2.67l10.58,19.81A2.83,2.83,0,0,1,540.07,80.85Z"/><path class="cls-1" d="M601.88,115.43a2.83,2.83,0,0,1-3.62-.13l-9.83-8.81a2.83,2.83,0,0,1,3.77-4.21l9.83,8.8a2.83,2.83,0,0,1,.22,4A3.06,3.06,0,0,1,601.88,115.43Z"/><path class="cls-1" d="M605.28,914.36a2.81,2.81,0,0,1-3.67-.17l-27.75-26.11a2.83,2.83,0,0,1,3.88-4.12l27.75,26.11a2.83,2.83,0,0,1,.12,4A2.28,2.28,0,0,1,605.28,914.36Z"/><path class="cls-1" d="M355.17,917.85a2.94,2.94,0,0,1-1.29.56,2.82,2.82,0,0,1-3.24-2.35L349,905.91a2.83,2.83,0,0,1,5.59-.88l1.61,10.14A2.86,2.86,0,0,1,355.17,917.85Z"/><path class="cls-1" d="M704.38,172.5a2.83,2.83,0,0,1-3.87-4.09L716,150.67a2.83,2.83,0,0,1,4.27,3.72l-15.46,17.74A2.72,2.72,0,0,1,704.38,172.5Z"/><path class="cls-1" d="M957.31,462.49a2.82,2.82,0,0,1-3.66-.16l-17.8-16.5a2.83,2.83,0,0,1,3.84-4.15l17.81,16.5a2.83,2.83,0,0,1,.15,4A2.45,2.45,0,0,1,957.31,462.49Z"/><path class="cls-1" d="M526.26,406.25a2.79,2.79,0,0,1-2.57.47,2.82,2.82,0,0,1-1.87-3.54l2.56-8.27a2.83,2.83,0,0,1,5.41,1.68l-2.56,8.27A2.78,2.78,0,0,1,526.26,406.25Z"/><path class="cls-1" d="M351.64,277a2.81,2.81,0,0,1-2.83.38l-8.22-3.45a2.83,2.83,0,0,1,2.19-5.22l8.22,3.45a2.83,2.83,0,0,1,1.51,3.71A2.8,2.8,0,0,1,351.64,277Z"/><path class="cls-1" d="M378.67,541.74a2.76,2.76,0,0,1-1.43.58,2.82,2.82,0,0,1-3.12-2.51l-2.49-23.13a2.83,2.83,0,1,1,5.62-.61l2.5,23.14A2.81,2.81,0,0,1,378.67,541.74Z"/><path class="cls-1" d="M920.91,638.31a2.83,2.83,0,0,1-3.91-4l7.47-9a2.83,2.83,0,1,1,4.35,3.62l-7.47,9A3,3,0,0,1,920.91,638.31Z"/><path class="cls-1" d="M475.42,585.53a2.81,2.81,0,0,1-1.47.58l-12.33,1.18a2.83,2.83,0,0,1-.54-5.64l12.33-1.17a2.83,2.83,0,0,1,2,5Z"/><path class="cls-1" d="M634.84,695.53a2.83,2.83,0,0,1-4-3.93l16.83-22.54a2.83,2.83,0,1,1,4.53,3.38L635.37,695A2.76,2.76,0,0,1,634.84,695.53Z"/><path class="cls-1" d="M198.74,705.07a3.06,3.06,0,0,1-.73.41l-8,3a2.83,2.83,0,0,1-2-5.29l8-3a2.83,2.83,0,0,1,2.75,4.88Z"/><path class="cls-1" d="M557.53,599.21a2.82,2.82,0,0,1-3.14.22l-22.5-12.81a2.83,2.83,0,1,1,2.8-4.92l22.5,12.81a2.83,2.83,0,0,1,1.06,3.86A2.68,2.68,0,0,1,557.53,599.21Z"/><path class="cls-1" d="M907.83,398.35a2.93,2.93,0,0,1-.93.48l-39.1,11.75a2.83,2.83,0,0,1-1.63-5.42l39.11-11.75a2.83,2.83,0,0,1,2.55,4.94Z"/><path class="cls-1" d="M681,307.07a2.83,2.83,0,0,1-4.36-3.29l2.81-7a2.83,2.83,0,0,1,5.25,2.12l-2.82,7A2.83,2.83,0,0,1,681,307.07Z"/><path class="cls-1" d="M486.67,172.25a2.81,2.81,0,0,1-2.75.41l-16.82-6.42a2.83,2.83,0,1,1,2-5.29l16.82,6.43a2.82,2.82,0,0,1,.73,4.87Z"/><path class="cls-1" d="M261.39,803.53a2.2,2.2,0,0,1-.25.17,2.81,2.81,0,0,1-3.89-.91l-4.31-6.95a2.83,2.83,0,0,1,4.81-3l4.3,6.95A2.82,2.82,0,0,1,261.39,803.53Z"/><path class="cls-1" d="M972.7,520.61a2.83,2.83,0,0,1-3.75-4.22l15.89-16.12a2.83,2.83,0,0,1,4,4L973,520.36Z"/><path class="cls-1" d="M385.45,651.64a2.87,2.87,0,0,1-1.5.58l-28.11,2.39a2.83,2.83,0,0,1-.47-5.64l28.1-2.39a2.83,2.83,0,0,1,2,5.06Z"/><path class="cls-1" d="M186.29,582.83a2.93,2.93,0,0,1-.95.48L157,591.52a2.83,2.83,0,0,1-1.57-5.44l28.32-8.2a2.83,2.83,0,0,1,2.53,5Z"/><path class="cls-1" d="M160.48,663.7a2.88,2.88,0,0,1-.34.23,2.83,2.83,0,0,1-3.86-1.06L151,653.54a2.83,2.83,0,1,1,4.92-2.79l5.29,9.32A2.84,2.84,0,0,1,160.48,663.7Z"/><path class="cls-1" d="M586,968.57a3.07,3.07,0,0,1-.66.38l-15.14,6.29A2.83,2.83,0,1,1,568,970l15.14-6.29a2.83,2.83,0,0,1,2.83,4.85Z"/><path class="cls-1" d="M1064.24,598.63a2.85,2.85,0,0,1-2.89.36l-8.13-3.6a2.83,2.83,0,1,1,2.28-5.18l8.14,3.6a2.82,2.82,0,0,1,1.44,3.73A2.78,2.78,0,0,1,1064.24,598.63Z"/><path class="cls-1" d="M642.38,490.77a2.83,2.83,0,0,1-2,.58L611.65,489a2.83,2.83,0,1,1,.46-5.64l28.76,2.36a2.84,2.84,0,0,1,1.51,5.06Z"/><path class="cls-1" d="M504.49,802.16a2.25,2.25,0,0,1-.36.24,2.82,2.82,0,0,1-3.85-1.08l-7-12.53a2.83,2.83,0,1,1,4.93-2.77l7,12.53A2.82,2.82,0,0,1,504.49,802.16Z"/><path class="cls-1" d="M795.09,509.34a2.83,2.83,0,0,1-3.8-4.17l5.34-5.7a2.83,2.83,0,1,1,4.12,3.87l-5.33,5.7Q795.25,509.2,795.09,509.34Z"/><path class="cls-1" d="M311.07,791.07a2.79,2.79,0,0,1-1.81.59,2.83,2.83,0,0,1-2.76-2.9l.26-9.61a2.83,2.83,0,1,1,5.66.16l-.26,9.6A2.84,2.84,0,0,1,311.07,791.07Z"/><path class="cls-1" d="M686.25,116l-.24.18L678.18,121a2.83,2.83,0,1,1-3-4.81l7.82-4.86a2.83,2.83,0,0,1,3.23,4.63Z"/><path class="cls-1" d="M403.42,168.55a2.84,2.84,0,0,1-3,.31l-11.2-5.39a2.83,2.83,0,0,1,2.46-5.1l11.19,5.39a2.84,2.84,0,0,1,1.33,3.78A2.9,2.9,0,0,1,403.42,168.55Z"/><path class="cls-1" d="M165.76,520.88a2.75,2.75,0,0,1-.73.41L134.4,533a2.83,2.83,0,1,1-2-5.28L163,516a2.83,2.83,0,0,1,2.75,4.88Z"/><path class="cls-1" d="M759.31,218.66a3.27,3.27,0,0,1-.8.44,2.83,2.83,0,0,1-3.61-1.73l-6.73-19.16a2.83,2.83,0,0,1,5.34-1.88l6.73,19.16A2.84,2.84,0,0,1,759.31,218.66Z"/><path class="cls-1" d="M1017.07,638.77a2.77,2.77,0,0,1-1.47.58,2.82,2.82,0,0,1-3.08-2.55l-1.64-17.33a2.83,2.83,0,1,1,5.63-.53l1.64,17.33A2.85,2.85,0,0,1,1017.07,638.77Z"/><path class="cls-1" d="M699.55,713.52a2.82,2.82,0,0,1-2.3.54l-17-3.44a2.83,2.83,0,0,1,1.13-5.55l17,3.45a2.83,2.83,0,0,1,1.18,5Z"/><path class="cls-1" d="M234.64,745.69a2.83,2.83,0,0,1-3.73-4.24l25.27-25.12a2.83,2.83,0,1,1,4,4L234.9,745.46Z"/><path class="cls-1" d="M566.05,314.77a2.84,2.84,0,0,1-3.62-.12L545.34,299.5a2.83,2.83,0,1,1,3.75-4.23l17.1,15.15a2.83,2.83,0,0,1,.24,4A3.19,3.19,0,0,1,566.05,314.77Z"/><path class="cls-1" d="M507.23,717.66a2.87,2.87,0,0,1-1.9.59l-26.77-1.55a2.83,2.83,0,0,1,.33-5.65l26.76,1.55a2.83,2.83,0,0,1,2.66,3A2.8,2.8,0,0,1,507.23,717.66Z"/><path class="cls-1" d="M862.72,653.73a2.87,2.87,0,0,1-1.07.51,2.83,2.83,0,0,1-3.42-2.08l-5.64-23.08a2.83,2.83,0,0,1,5.5-1.34l5.64,23.08A2.85,2.85,0,0,1,862.72,653.73Z"/><path class="cls-1" d="M439.17,311.14a2.82,2.82,0,0,1-3.4.06L404.3,288.36a2.83,2.83,0,0,1,3.32-4.58l31.47,22.84a2.82,2.82,0,0,1,.63,3.95A3,3,0,0,1,439.17,311.14Z"/><path class="cls-1" d="M415.91,717.11a2.82,2.82,0,0,1-2.49.5l-27.17-7.43a2.83,2.83,0,0,1,1.49-5.46l27.17,7.43a2.83,2.83,0,0,1,1,5Z"/><path class="cls-1" d="M120.09,617.51a2.83,2.83,0,0,1-3.9-.41L98.35,596a2.83,2.83,0,0,1,.33-4,2.87,2.87,0,0,1,4,.33l17.85,21.11a2.83,2.83,0,0,1-.34,4Z"/><path class="cls-1" d="M685.57,529.37a2.83,2.83,0,0,1-4.56-2.45l.74-9.5a2.83,2.83,0,1,1,5.64.44l-.74,9.49A2.79,2.79,0,0,1,685.57,529.37Z"/><path class="cls-1" d="M577.55,456.42a2.88,2.88,0,0,1-.83.45,2.83,2.83,0,0,1-3.59-1.78l-8.6-25.55a2.83,2.83,0,1,1,5.36-1.81l8.61,25.55A2.85,2.85,0,0,1,577.55,456.42Z"/><path class="cls-1" d="M787.11,442.39a2.84,2.84,0,0,1-1,.48l-34.55,9.79a2.83,2.83,0,0,1-1.54-5.45l34.55-9.78a2.83,2.83,0,0,1,2.51,5Z"/><path class="cls-1" d="M654.3,359.36a2.82,2.82,0,0,1-3.71-.21L637,345.84a2.83,2.83,0,1,1,4-4l13.61,13.3a2.84,2.84,0,0,1,0,4A2.35,2.35,0,0,1,654.3,359.36Z"/><path class="cls-1" d="M255.46,554.45a2.9,2.9,0,0,1-1.06.51l-30.86,7.57a2.83,2.83,0,0,1-1.35-5.5l30.86-7.57a2.83,2.83,0,0,1,2.41,5Z"/><path class="cls-1" d="M586.14,701.69a3.15,3.15,0,0,1-.47.3,2.83,2.83,0,0,1-3.8-1.27L566.5,669.87a2.83,2.83,0,1,1,5.07-2.52l15.37,30.84A2.83,2.83,0,0,1,586.14,701.69Z"/><path class="cls-1" d="M313.2,331.12a2.83,2.83,0,0,1-4.14-3.73L316.19,316a2.83,2.83,0,0,1,4.81,3l-7.14,11.45A2.72,2.72,0,0,1,313.2,331.12Z"/><path class="cls-1" d="M425.3,476.72a2.83,2.83,0,0,1-3.49-4.45l24.7-19.55a2.73,2.73,0,0,1,4,.46,2.83,2.83,0,0,1-.47,4l-24.7,19.56Z"/><path class="cls-1" d="M849.73,477.91a2.86,2.86,0,0,1-4.37-1.19L830.74,440a2.83,2.83,0,0,1,5.26-2.1l14.61,36.7A2.83,2.83,0,0,1,849.73,477.91Z"/><path class="cls-1" d="M887.38,589.08a2.83,2.83,0,0,1-4.17-3.68l10.12-17.08a2.82,2.82,0,1,1,4.86,2.88l-10.11,17.09A3,3,0,0,1,887.38,589.08Z"/><path class="cls-1" d="M501.82,284.22a2.81,2.81,0,0,1-2.61.46l-9.41-3.05a2.83,2.83,0,0,1,1.75-5.39L501,279.3a2.83,2.83,0,0,1,.86,4.92Z"/><path class="cls-1" d="M368.82,464.69a2.82,2.82,0,0,1-2.83.38l-30-12.53a2.83,2.83,0,1,1,2.18-5.22l30,12.53a2.83,2.83,0,0,1,.65,4.84Z"/><path class="cls-1" d="M628.39,556a2.85,2.85,0,0,1-2,.58l-24.81-2.68a2.83,2.83,0,0,1,.6-5.63L627,551a2.84,2.84,0,0,1,1.44,5Z"/><path class="cls-1" d="M752.83,594.71a2.77,2.77,0,0,1-2.33.53,2.82,2.82,0,0,1-2.17-3.36l7-32.32a2.83,2.83,0,0,1,5.53,1.2l-7,32.32A2.77,2.77,0,0,1,752.83,594.71Z"/><path class="cls-1" d="M512.18,873.09a2.6,2.6,0,0,1-.45.28l-11,5.68a2.83,2.83,0,1,1-2.6-5l11-5.68a2.83,2.83,0,0,1,3,4.75Z"/><path class="cls-1" d="M660.46,842.06a2.82,2.82,0,0,1-1.27.56l-39,6.47a2.83,2.83,0,1,1-.93-5.58l39-6.48a2.83,2.83,0,0,1,2.2,5Z"/><path class="cls-1" d="M513.47,346.48a2.78,2.78,0,0,1-1.83.59l-22.13-.72a2.83,2.83,0,0,1,.19-5.66l22.12.73a2.83,2.83,0,0,1,1.65,5.06Z"/><path class="cls-1" d="M840.06,302.41a2.82,2.82,0,0,1-3.26.16L830,298.21a2.83,2.83,0,0,1,3-4.77l6.82,4.35a2.84,2.84,0,0,1,.86,3.91A2.77,2.77,0,0,1,840.06,302.41Z"/><path class="cls-1" d="M177.62,461.45a2.83,2.83,0,0,1-3.8-.3L144.58,430a2.83,2.83,0,1,1,4.12-3.87L178,457.28a2.83,2.83,0,0,1-.13,4Z"/><path class="cls-1" d="M725.66,761.31a2.56,2.56,0,0,1-.76.42l-6.72,2.48a2.83,2.83,0,0,1-2-5.31l6.73-2.48a2.83,2.83,0,0,1,2.71,4.89Z"/><path class="cls-1" d="M405.55,415.75a2.78,2.78,0,0,1-1.93.59l-7.82-.55a2.83,2.83,0,1,1,.4-5.64l7.81.55a2.83,2.83,0,0,1,2.63,3A2.79,2.79,0,0,1,405.55,415.75Z"/><path class="cls-1" d="M700.07,459.07a2.81,2.81,0,0,1-2.62.46l-17.6-5.75a2.83,2.83,0,1,1,1.76-5.38l17.59,5.75a2.84,2.84,0,0,1,.87,4.92Z"/><path class="cls-1" d="M650.7,82.89l-.13.1a2.84,2.84,0,0,1-3.94-.73L624.76,50.47a2.83,2.83,0,1,1,4.66-3.2l21.87,31.78A2.82,2.82,0,0,1,650.7,82.89Z"/><path class="cls-1" d="M383.42,234.44a2.83,2.83,0,0,1-3.81-4.16l16.71-18a2.83,2.83,0,1,1,4.15,3.84l-16.71,18A3.28,3.28,0,0,1,383.42,234.44Z"/><path class="cls-1" d="M797,646a3,3,0,0,1-1.16.54l-30.41,6.34a2.83,2.83,0,0,1-1.16-5.54L794.63,641a2.83,2.83,0,0,1,2.32,5Z"/><path class="cls-1" d="M519.78,472.51a2.81,2.81,0,0,1-2.28.54l-23.08-4.52a2.83,2.83,0,0,1,1.09-5.55l23.08,4.52a2.83,2.83,0,0,1,1.19,5Z"/><path class="cls-1" d="M741,510.38a2.18,2.18,0,0,1-.61.36,2.81,2.81,0,0,1-3.72-1.46L733,500.84a2.83,2.83,0,0,1,5.19-2.26l3.68,8.44A2.81,2.81,0,0,1,741,510.38Z"/><path class="cls-1" d="M466.32,841a2.86,2.86,0,0,1-3.55-.06l-30.68-25.45a2.83,2.83,0,1,1,3.62-4.35l30.68,25.44a2.84,2.84,0,0,1,.37,4A3.57,3.57,0,0,1,466.32,841Z"/><path class="cls-1" d="M710.21,871.15a2.84,2.84,0,0,1-4.54-2.67L709.11,846a2.83,2.83,0,1,1,5.6.86l-3.45,22.49A2.82,2.82,0,0,1,710.21,871.15Z"/><path class="cls-1" d="M305,656.22a2.81,2.81,0,0,1-2.18.56l-31.23-4.92a2.83,2.83,0,0,1,.88-5.59l31.23,4.92a2.83,2.83,0,0,1,1.3,5Z"/><path class="cls-1" d="M851.71,532.25l-.19.14-17.6,11.47A2.84,2.84,0,0,1,830,543a2.81,2.81,0,0,1,.82-3.91l17.61-11.48a2.83,2.83,0,0,1,3.28,4.61Z"/><path class="cls-1" d="M727,344.1a2.83,2.83,0,0,1-4-3.93l12.78-17a2.83,2.83,0,1,1,4.52,3.39L727.5,343.57A3,3,0,0,1,727,344.1Z"/><path class="cls-1" d="M964,676.69a2.83,2.83,0,0,1-4.33-3.39l4.58-10.25a2.83,2.83,0,0,1,5.17,2.31l-4.58,10.25A2.84,2.84,0,0,1,964,676.69Z"/><path class="cls-1" d="M693.82,224.71a2.73,2.73,0,0,1-1.13.52l-43.07,9.5a2.83,2.83,0,1,1-1.22-5.52l43.08-9.5a2.83,2.83,0,0,1,2.34,5Z"/><path class="cls-1" d="M828.81,708.68a2.83,2.83,0,0,1-4.56-2.21l-.18-17.29a2.83,2.83,0,1,1,5.66,0l.18,17.28A2.86,2.86,0,0,1,828.81,708.68Z"/><path class="cls-1" d="M600.79,198.17l-.22.15a2.83,2.83,0,0,1-3.91-.86l-10.37-16.18a2.83,2.83,0,0,1,4.77-3.06l10.37,16.19A2.84,2.84,0,0,1,600.79,198.17Z"/><path class="cls-1" d="M550.66,229.78a2.83,2.83,0,0,1-2.34.53L514.16,223a2.83,2.83,0,0,1,1.19-5.54l34.16,7.31a2.84,2.84,0,0,1,1.15,5Z"/><path class="cls-1" d="M214.57,651.69a2.83,2.83,0,0,1-4.34-3.34l10.39-24.41a2.83,2.83,0,1,1,5.21,2.22l-10.39,24.4A2.89,2.89,0,0,1,214.57,651.69Z"/><path class="cls-1" d="M196.32,331.52a2.82,2.82,0,0,1-3.65-.16l-11.38-10.49a2.83,2.83,0,1,1,3.84-4.16L196.5,327.2a2.84,2.84,0,0,1,.17,4A3.49,3.49,0,0,1,196.32,331.52Z"/><path class="cls-1" d="M387.58,778a2.84,2.84,0,0,1-2.55.48l-15.41-4.57a2.83,2.83,0,1,1,1.6-5.42L386.64,773a2.84,2.84,0,0,1,.94,5Z"/><path class="cls-1" d="M1024,558.84a2.84,2.84,0,0,1-3.68-.18l-9.41-8.9a2.83,2.83,0,1,1,3.89-4.11l9.41,8.9a2.82,2.82,0,0,1,.11,4Z"/><path class="cls-1" d="M358.47,380.76a2.83,2.83,0,0,1-4.18-3.66l20.48-34.9a2.83,2.83,0,0,1,4.88,2.86L359.17,380A2.58,2.58,0,0,1,358.47,380.76Z"/><path class="cls-1" d="M771.08,708.3a2.74,2.74,0,0,1-1,.51l-21.55,5.4a2.83,2.83,0,1,1-1.37-5.49l21.54-5.4a2.83,2.83,0,0,1,2.42,5Z"/><path class="cls-1" d="M913.94,521.88a2.76,2.76,0,0,1-1.19.54,2.83,2.83,0,0,1-3.32-2.24l-8.08-41.65a2.83,2.83,0,0,1,5.56-1.07L915,519.11A2.81,2.81,0,0,1,913.94,521.88Z"/><path class="cls-1" d="M643.5,928.8a2.83,2.83,0,0,1-3.6-4.36l25.62-22.52a2.83,2.83,0,1,1,3.74,4.25l-25.62,22.52Z"/><path class="cls-1" d="M230.45,444a2.83,2.83,0,0,1-4-3.87l19.47-27.54a2.83,2.83,0,1,1,4.62,3.27L231,443.39A2.81,2.81,0,0,1,230.45,444Z"/><path class="cls-1" d="M37.21,502.82a2.83,2.83,0,0,1-3.63-.13L.94,473.25a2.83,2.83,0,0,1,3.78-4.2l32.65,29.43a2.83,2.83,0,0,1,.21,4A2.92,2.92,0,0,1,37.21,502.82Z"/><path class="cls-1" d="M518.24,661.39a2.81,2.81,0,0,1-3.66-.17l-28.53-26.6a2.83,2.83,0,0,1,3.86-4.14l28.53,26.61a2.84,2.84,0,0,1,.14,4A3.17,3.17,0,0,1,518.24,661.39Z"/><path class="cls-1" d="M638.46,416a2.74,2.74,0,0,1-.79.43l-10.6,3.81a2.83,2.83,0,1,1-1.91-5.32l10.6-3.81a2.83,2.83,0,0,1,2.7,4.89Z"/><path class="cls-1" d="M284.36,477.11a2.83,2.83,0,0,1-4.28-3.49l6.37-12.91a2.83,2.83,0,0,1,5.08,2.5l-6.37,12.92A3,3,0,0,1,284.36,477.11Z"/><path class="cls-1" d="M767.53,834.78l-.06,0a2.83,2.83,0,0,1-4-.59l-24.71-33.47a2.71,2.71,0,0,1,.6-4,2.82,2.82,0,0,1,4,.59l24.71,33.47A2.83,2.83,0,0,1,767.53,834.78Z"/><path class="cls-1" d="M256.28,360a2.8,2.8,0,0,1-1.9.59l-7.4-.44a2.82,2.82,0,1,1,.33-5.64l7.4.43a2.83,2.83,0,0,1,1.57,5.06Z"/><path class="cls-1" d="M528.82,1021.68a2.81,2.81,0,0,1-2.08.57L516.55,1021a2.83,2.83,0,1,1,.69-5.62l10.19,1.26a2.83,2.83,0,0,1,2.46,3.15A2.86,2.86,0,0,1,528.82,1021.68Z"/><path class="cls-1" d="M553.81,747.11a2.72,2.72,0,0,1-.44.27l-13.17,6.86a2.83,2.83,0,0,1-2.61-5l13.17-6.86a2.83,2.83,0,0,1,3,4.75Z"/><path class="cls-1" d="M914.1,712.09a2.82,2.82,0,0,1-3.86-.36l-17.82-20.29a2.83,2.83,0,0,1,4.25-3.74L914.49,708a2.84,2.84,0,0,1-.25,4Z"/><path class="cls-1" d="M424.22,985.24a2.82,2.82,0,0,1-3.3.13L390.1,964.9a2.83,2.83,0,0,1,3.13-4.71l30.82,20.46a2.84,2.84,0,0,1,.79,3.93A2.79,2.79,0,0,1,424.22,985.24Z"/><path class="cls-1" d="M394.29,845.06a2.85,2.85,0,0,1-2,.58l-43.15-4.25a2.83,2.83,0,1,1,.55-5.63L392.83,840a2.83,2.83,0,0,1,1.46,5Z"/><path class="cls-1" d="M338.23,208.17a2.82,2.82,0,0,1-4.37-3.26l4.23-10.8a2.83,2.83,0,0,1,5.27,2.06L339.13,207A2.73,2.73,0,0,1,338.23,208.17Z"/><path class="cls-1" d="M97.2,488a2.83,2.83,0,0,1-3.84-4.13l15-16.68a2.83,2.83,0,1,1,4.2,3.79l-15,16.68A3.92,3.92,0,0,1,97.2,488Z"/><path class="cls-1" d="M818.35,787.91a2.82,2.82,0,0,1-3.71-.22l-25.93-25.35a2.83,2.83,0,0,1,4-4.05l25.92,25.36a2.83,2.83,0,0,1,0,4Z"/><path class="cls-1" d="M49.55,443.18a2.8,2.8,0,0,1-2.78.4l-11.93-4.74a2.83,2.83,0,0,1,2.09-5.26l11.93,4.74A2.83,2.83,0,0,1,50.44,442,2.71,2.71,0,0,1,49.55,443.18Z"/><path class="cls-1" d="M500.44,972.85a2.83,2.83,0,0,1-3.58-.09l-25.5-21.91a2.83,2.83,0,1,1,3.69-4.29l25.5,21.91a2.82,2.82,0,0,1,.3,4A3,3,0,0,1,500.44,972.85Z"/><path class="cls-1" d="M605.09,789.82a2.77,2.77,0,0,1-1.18.54,2.82,2.82,0,0,1-3.33-2.21l-2.72-13.5a2.83,2.83,0,0,1,5.55-1.11L606.12,787A2.81,2.81,0,0,1,605.09,789.82Z"/><path class="cls-1" d="M483.07,408.66a2.81,2.81,0,0,1-2.26.54l-17.4-3.3a2.83,2.83,0,1,1,1-5.56l17.4,3.3a2.84,2.84,0,0,1,1.21,5Z"/><path class="cls-1" d="M437.54,367a2.82,2.82,0,0,1-2.74.42l-8.74-3.3a2.83,2.83,0,1,1,2-5.29l8.74,3.29a2.84,2.84,0,0,1,.74,4.88Z"/><path class="cls-1" d="M549.49,140.88l-.31.22L528.86,153A2.83,2.83,0,1,1,526,148.1l20.31-11.89a2.83,2.83,0,0,1,3.17,4.67Z"/><path class="cls-1" d="M196.91,387.72a2.86,2.86,0,0,1-3.08.26L156,367.77a2.83,2.83,0,1,1,2.66-5L196.5,383a2.82,2.82,0,0,1,1.16,3.83A2.87,2.87,0,0,1,196.91,387.72Z"/><path class="cls-1" d="M313,863.57a2.83,2.83,0,0,1-3.82-.32l-14.64-16a2.84,2.84,0,0,1,.18-4,2.8,2.8,0,0,1,4,.18l14.63,16a2.83,2.83,0,0,1-.18,4Z"/><path class="cls-1" d="M323.47,537.06a2.82,2.82,0,0,1-2.91.35l-23-10.49a2.83,2.83,0,0,1,2.35-5.15l23,10.49a2.83,2.83,0,0,1,1.4,3.75A2.9,2.9,0,0,1,323.47,537.06Z"/><path class="cls-1" d="M447.89,248.89a2.79,2.79,0,0,1-2.57.47,2.84,2.84,0,0,1-1.88-3.53l10.92-35.52a2.83,2.83,0,1,1,5.41,1.66l-10.91,35.52A2.82,2.82,0,0,1,447.89,248.89Z"/><path class="cls-1" d="M447.69,899.7a2.87,2.87,0,0,1-1.5.58l-34.42,3a2.83,2.83,0,0,1-.49-5.64l34.43-3a2.83,2.83,0,0,1,2,5.06Z"/><path class="cls-1" d="M468.92,1057.86a2.35,2.35,0,0,1-.37.24,2.82,2.82,0,0,1-3.84-1.1l-16-28.82a2.83,2.83,0,1,1,4.95-2.74l16,28.82A2.84,2.84,0,0,1,468.92,1057.86Z"/><path class="cls-1" d="M447.85,664.88a2.83,2.83,0,0,1-3.42,0l-6.6-4.9a2.83,2.83,0,1,1,3.37-4.54l6.6,4.89a2.83,2.83,0,0,1,.05,4.51Z"/><path class="cls-1" d="M282.82,597.7a2.79,2.79,0,0,1-1.9.59,2.83,2.83,0,0,1-2.66-3l.43-7.34a2.83,2.83,0,1,1,5.65.32l-.43,7.35A2.79,2.79,0,0,1,282.82,597.7Z"/><path class="cls-1" d="M303.73,407a2.78,2.78,0,0,1-1.35.57,2.83,2.83,0,0,1-3.19-2.41l-3-21.12a2.83,2.83,0,0,1,5.61-.79l3,21.12A2.82,2.82,0,0,1,303.73,407Z"/><path class="cls-1" d="M626.28,624.72a2.8,2.8,0,0,1-2.7.43L608,619.54a2.83,2.83,0,0,1,1.92-5.32l15.54,5.61a2.83,2.83,0,0,1,1.7,3.62A2.78,2.78,0,0,1,626.28,624.72Z"/><path class="cls-1" d="M573.23,32.86a2.83,2.83,0,0,1-3.87-4.09L593.56,1a2.83,2.83,0,0,1,4.27,3.72l-24.2,27.8A2.79,2.79,0,0,1,573.23,32.86Z"/><path class="cls-1" d="M346.68,594.31a2.47,2.47,0,0,1-.47.29L337.45,599a2.83,2.83,0,0,1-2.54-5.06l8.76-4.4a2.83,2.83,0,0,1,3,4.76Z"/><path class="cls-1" d="M238.07,504.66a2.82,2.82,0,0,1-2.77.41l-19.19-7.45a2.83,2.83,0,1,1,2-5.27l19.19,7.44a2.83,2.83,0,0,1,1.61,3.67A2.77,2.77,0,0,1,238.07,504.66Z"/><path class="cls-1" d="M78.11,546.43a2.55,2.55,0,0,1-.62.37l-11.26,4.87a2.83,2.83,0,0,1-2.25-5.2l11.27-4.87a2.83,2.83,0,0,1,2.86,4.83Z"/><path class="cls-1" d="M865.44,348.85l-.27.19-7.51,4.57a2.83,2.83,0,0,1-2.94-4.84l7.51-4.56a2.83,2.83,0,0,1,3.21,4.64Z"/><path class="cls-1" d="M804.32,337.15a3.37,3.37,0,0,1-.61.36l-12.66,5.56a2.83,2.83,0,0,1-2.28-5.18l12.67-5.57a2.83,2.83,0,0,1,2.88,4.83Z"/><path class="cls-1" d="M713.63,656.37a2.83,2.83,0,0,1-3.77-.27l-18.26-19a2.83,2.83,0,1,1,4.07-3.93l18.27,19a2.84,2.84,0,0,1-.08,4A2.11,2.11,0,0,1,713.63,656.37Z"/><path class="cls-1" d="M627,289.16a2.84,2.84,0,0,1-3.48,0l-32.21-25.24a2.83,2.83,0,1,1,3.49-4.45L627,284.7a2.84,2.84,0,0,1,.48,4A3.17,3.17,0,0,1,627,289.16Z"/><path class="cls-1" d="M870,745.64l-.05,0-9.72,7.26a2.82,2.82,0,0,1-4-.57,2.86,2.86,0,0,1,.57-4l9.73-7.27a2.83,2.83,0,0,1,3.43,4.5Z"/></g></g></g></svg>