<svg xmlns="http://www.w3.org/2000/svg" viewBox="0 0 443 443"><defs><style>.cls-1{fill:#fcd20e;}.cls-2{fill:none;stroke:#e8c10d;stroke-miterlimit:10;stroke-width:18px;}</style></defs><title>Asset 4</title><g id="Layer_2" data-name="Layer 2"><g id="Layer_1-2" data-name="Layer 1"><path class="cls-1" d="M82.47,242.73a46.24,46.24,0,0,0-6.9.72l.36-2.76c3.72-.72,4.68-1.8,4.68-5.16l.06-25.2c0-2.58-.42-3.24-2.22-3.24-.72,0-2,.12-2,.12l-.12-.24.42-2.64s4,.18,6.3.18c2.76,0,9.12-.24,9.12-.24,11.7,0,19.74,7.26,19.74,17.94,0,11.94-9.12,21.24-20.76,21.24C91.11,243.45,85.53,242.73,82.47,242.73Zm3.36-34.2c-.54,13.86-.9,23.64-.9,26.34,0,4.38,1.5,5.52,7.56,5.52,8.64,0,13.92-6.36,13.92-16.74,0-10.56-6.6-16.44-18.42-16.44C86.31,207.21,85.89,207.45,85.83,208.53Z"/><path class="cls-1" d="M131.37,225.21c0-4-1.92-6.36-5.28-6.36-3.9,0-7.2,3-7.2,3l-.3-.18-.72-2.58s7.2-4.2,9.78-4.2c5.22,0,8.34,2.88,8.34,7.74,0,2.16-1.08,10.26-1.08,13.8,0,1.74.9,2.76,2.46,2.76a6.24,6.24,0,0,0,3.6-1.5l.84,1s-2.22,3.78-5.22,4.8c-3.24,0-5-1.62-5.34-4.86l-.24-.06c-2.88,2.88-5.4,4.68-6.6,4.68a7.32,7.32,0,0,1-7.68-7.44,4.73,4.73,0,0,1,3.18-4.8l11.34-3.12Zm-.24,4.92-8.1,2.46a2.43,2.43,0,0,0-1.74,2.52,4,4,0,0,0,4.14,4c1.5,0,3.78-1.2,5.46-2.88Z"/><path class="cls-1" d="M175.89,217.71h-2.22l-.24-.36.3-1.86s3.06.12,5.94.12c2,0,4.91-.06,4.91-.06l-.41,2.22c-1.63.18-2.29,1-3.73,4.5L172,242.73l-3.18,1s-3.18-10.5-5.4-17.7h-.36l-6.66,16.68-3.24,1s-5.4-17.82-7.08-23a4,4,0,0,0-4-3l-.12-.24.36-2s3.48.06,4.8.06a65.47,65.47,0,0,0,7-.42l.12.3-.36,1.86c-2.64.12-3.42.48-3.42,1.56,0,1.86,4.92,19,4.92,19h.24c3.06-7.8,5.28-13.14,6.36-16.14-.84-2.52-1.8-4-4.26-4l-.12-.24.36-2s3.48.06,4.8.06c3.54,0,7-.3,7-.3l.12.3-.36,1.86c-2.76.12-3.42.42-3.42,1.44,0,1.74,4.92,19,4.92,19h.24c4.32-11,7-17.22,7-18.66C178.35,218.13,177.69,217.71,175.89,217.71Z"/><path class="cls-1" d="M204,241c2.4-.66,3.36-1.8,3.36-3.9l.24-11.88c0-4-1.8-6.24-5-6.24-2.94,0-6.18,2.22-7.37,3.12-.19,4.14-.54,12.42-.54,14.76s.6,3.36,2.15,3.36c.72,0,2.1-.12,2.1-.12l.12.24-.54,2.58s-3.23-.18-5.46-.18c-2.52,0-5.93.36-5.93.36l.3-2.46c2.28-.36,3.18-1.32,3.18-3.54V222.45c0-2.7-.78-3.66-2.94-3.66h-.66l-.18-.24.18-2c4.14-.66,8.39-1.74,8.39-1.74l.36.48a21.72,21.72,0,0,0-.65,4l.12.18c1.44-1,6.89-4.56,8.81-4.56,5,0,8.22,3,8.22,7.74,0,2.1-.84,10.74-.84,14.22,0,2.34.6,3.36,2.1,3.36.72,0,2.1-.12,2.1-.12l.12.24-.48,2.58s-3.12-.18-5.34-.18a40.29,40.29,0,0,0-6.18.72Z"/><path class="cls-1" d="M238.29,210.33c0-2.58-.42-3.18-2.22-3.18-.73,0-2.82.24-2.82.24l-.13-.24.42-2.64H240c2.58,0,7-.54,7-.54l-.24,2.7c-2.82.42-3.3.9-3.42,3.42-.24,5.34-.72,20.76-.78,25.68-.06,8.16-3,12.84-9.77,15.6l-1-2,.17-.48c4.87-2.94,6.3-5.88,6.3-13.08Z"/><path class="cls-1" d="M256.65,227.25v1c0,6.72,3.53,11.16,8.87,11.16a18.77,18.77,0,0,0,7.38-1.86l.36.12.66,1.74s-5.58,4.08-9.17,4.08c-7.56,0-12.6-5.34-12.6-13.26,0-8.22,6.11-15.3,13.25-15.3,5.88,0,8.94,3,8.94,8.7a13.81,13.81,0,0,1-.36,2.94l-.78.72Zm11.09-2.76c1.2-.12,1.5-.42,1.5-1.62,0-3.18-1.8-4.92-5-4.92-3.72,0-6.65,2.7-7.38,7.08Z"/><path class="cls-1" d="M279,230.13c0-8.58,6.05-15.24,13.91-15.24,6.84,0,11.64,5.46,11.64,13.32,0,8.58-6.06,15.24-13.91,15.24C283.76,243.45,279,238,279,230.13Zm20.63.24c0-7.2-3.48-12.24-8.52-12.24-4.5,0-7.31,4-7.31,10.26,0,7.2,3.47,12.12,8.51,12.12C296.84,240.51,299.66,236.61,299.66,230.37Z"/><path class="cls-1" d="M326.24,241c2.4-.66,3.36-1.8,3.36-3.9l.24-11.88c0-4-1.8-6.24-5-6.24-2.94,0-6.18,2.22-7.38,3.12-.18,4.14-.54,12.42-.54,14.76s.6,3.36,2.16,3.36c.72,0,2.1-.12,2.1-.12l.12.24-.54,2.58s-3.24-.18-5.46-.18c-2.52,0-5.94.36-5.94.36l.3-2.46c2.28-.36,3.18-1.32,3.18-3.54V222.45c0-2.7-.78-3.66-2.94-3.66h-.66l-.18-.24.18-2c4.14-.66,8.4-1.74,8.4-1.74l.36.48a21.24,21.24,0,0,0-.66,4l.12.18c1.44-1,6.9-4.56,8.82-4.56,5,0,8.22,3,8.22,7.74,0,2.1-.84,10.74-.84,14.22,0,2.34.6,3.36,2.1,3.36.72,0,2.1-.12,2.1-.12l.12.24-.48,2.58s-3.12-.18-5.34-.18a40.29,40.29,0,0,0-6.18.72Z"/><path class="cls-1" d="M350.66,234.45c-1.62.9-2.52,1.86-2.52,2.64,0,1.86,2.28,2.76,7.2,2.94,9.3.48,12.78,2.22,12.78,6.42,0,5.52-7.26,10.8-14.88,10.8-5.7,0-9.06-2.94-9.06-8a31.53,31.53,0,0,1,5.94-5.4v-.36c-3.72-.48-6.54-3-6.54-5.88a30.27,30.27,0,0,1,5-3.84v-.24a8.68,8.68,0,0,1-4.44-8c0-5.7,5.22-10.68,11.16-10.68,2.28,0,4.32.66,5.88.66a74.4,74.4,0,0,0,8.28-1.8l.18.24-.66,3.36s-2.64.36-5.16.54l-.24.3a9,9,0,0,1,2.4,6.06c0,6-5.22,10.68-11.88,10.68A14.69,14.69,0,0,1,350.66,234.45Zm10.86-8.7c0-4.62-2.82-7.8-6.9-7.8-3.66,0-5.94,2.58-5.94,6.6,0,4.62,2.76,7.74,6.9,7.74C359.24,232.29,361.52,229.83,361.52,225.75Zm2.76,22.62c0-2.34-2.1-3.18-11.7-4.44,0,0-3.72,2.76-3.72,5.46,0,3.06,2.46,4.92,6.6,4.92C360.14,254.31,364.28,251.49,364.28,248.37Z"/><path class="cls-1" d="M145.05,268.35v7.56a3.88,3.88,0,0,1-1.09,2.93,4.24,4.24,0,0,1-5.6,0,3.89,3.89,0,0,1-1.08-2.92v-7.56h.42v7.56a3.51,3.51,0,0,0,1,2.59,3.67,3.67,0,0,0,5,0,3.51,3.51,0,0,0,1-2.59v-7.56Z"/><path class="cls-1" d="M157.66,273.59l3.68-5.24h.52l-3.92,5.57,4.09,5.81h-.52l-3.85-5.48-3.83,5.48h-.52l4.09-5.81-3.93-5.57H154Z"/><path class="cls-1" d="M169.64,280.7h-.46l4.75-12.35h.46Z"/><path class="cls-1" d="M190.58,268.35v7.56a3.88,3.88,0,0,1-1.09,2.93,4.24,4.24,0,0,1-5.6,0,3.89,3.89,0,0,1-1.08-2.92v-7.56h.42v7.56a3.48,3.48,0,0,0,1,2.59,3.67,3.67,0,0,0,5,0,3.51,3.51,0,0,0,1-2.59v-7.56Z"/><path class="cls-1" d="M200.72,279.73h-.42V268.35h.42Z"/><path class="cls-1" d="M220.79,279.73V268.35h3.38a4.46,4.46,0,0,1,3.33,1.41,4.93,4.93,0,0,1,1.37,3.58v1.39a4.93,4.93,0,0,1-1.37,3.59,4.46,4.46,0,0,1-3.33,1.41Zm.42-11V279.3h3a4,4,0,0,0,3-1.29,4.52,4.52,0,0,0,1.25-3.28v-1.41a4.47,4.47,0,0,0-1.25-3.25,4.06,4.06,0,0,0-3-1.3Z"/><path class="cls-1" d="M243.78,274h-5.47v5.29h6.27v.43h-6.69V268.35h6.69v.42h-6.27v4.82h5.47Z"/><path class="cls-1" d="M259.83,277.05a1.89,1.89,0,0,0-.8-1.58,10.21,10.21,0,0,0-2.73-1.23,9.83,9.83,0,0,1-2.83-1.24,2.25,2.25,0,0,1-.91-1.95,2.46,2.46,0,0,1,1.06-2.07,4.42,4.42,0,0,1,2.71-.79,4.13,4.13,0,0,1,2.74.87,3,3,0,0,1,1,2.45v0h-.36a2.71,2.71,0,0,0-.94-2.1,3.52,3.52,0,0,0-2.43-.84,3.84,3.84,0,0,0-2.45.72A2.14,2.14,0,0,0,253,271a2,2,0,0,0,.73,1.6,8.22,8.22,0,0,0,2.72,1.2,10.78,10.78,0,0,1,2.88,1.26,2.2,2.2,0,0,1,.95,1.93,2.41,2.41,0,0,1-1.12,2.08,4.68,4.68,0,0,1-2.76.78,5.3,5.3,0,0,1-2.94-.8,2.72,2.72,0,0,1-1.2-2.52l0-.05h.35a2.45,2.45,0,0,0,1.14,2.25,4.9,4.9,0,0,0,2.63.7,4.17,4.17,0,0,0,2.47-.69A2.06,2.06,0,0,0,259.83,277.05Z"/><path class="cls-1" d="M269.8,279.73h-.42V268.35h.42Z"/><path class="cls-1" d="M287.65,278.2a3.45,3.45,0,0,1-1.38,1.15,5.28,5.28,0,0,1-2.5.54,4,4,0,0,1-3.17-1.39,5.3,5.3,0,0,1-1.21-3.62V273a5.06,5.06,0,0,1,1.18-3.48,3.88,3.88,0,0,1,3.07-1.35,4.3,4.3,0,0,1,2.9.93,2.93,2.93,0,0,1,1,2.41v.05h-.36a2.75,2.75,0,0,0-.93-2.14,3.85,3.85,0,0,0-2.64-.83,3.48,3.48,0,0,0-2.78,1.23,4.72,4.72,0,0,0-1.05,3.17v1.87a4.94,4.94,0,0,0,1.08,3.31,3.62,3.62,0,0,0,2.88,1.28A5,5,0,0,0,286,279a2.69,2.69,0,0,0,1.21-1v-3.23h-3.48v-.43h3.9Z"/><path class="cls-1" d="M305.4,279.73H305l-7.29-10.6-.05,0v10.58h-.43V268.35h.43l7.3,10.57h0V268.35h.43Z"/><circle class="cls-2" cx="221.5" cy="221.5" r="212.5"/></g></g></svg>